# xmcd
#
# Track frame offsets:
#	150
#	14827
#	34722
#	54887
#	73060
#	90427
#	106772
#	121595
#	135890
#	150725
#	168842
#
# Disc length: 2416 seconds
#
# Revision: 1
# Processed by: cddbd v1.5.1PL0 Copyright (c) Steve Scherf et al.
# Submitted via: audiograbber 1.83.01
#
DISCID=7a096e0b
DTITLE=Faith HILL - The Private Collection
DYEAR=1900
DGENRE=Country
TTITLE0=This kiss
TTITLE1=Let me let go
TTITLE2=Just to hear you say that you love me (& Tim McGRAW)
TTITLE3=I can't do that anymore
TTITLE4=You can't lose me
TTITLE5=Someone else's dream
TTITLE6=I matters to me
TTITLE7=Let's go to Vegas
TTITLE8=Take me as I am
TTITLE9=Piece of my heart
TTITLE10=Wild one
EXTD=
EXTT0=
EXTT1=
EXTT2=
EXTT3=
EXTT4=
EXTT5=
EXTT6=
EXTT7=
EXTT8=
EXTT9=
EXTT10=
PLAYORDER=
